<svg width="239" height="59" viewBox="0 0 239 59" fill="none" xmlns="http://www.w3.org/2000/svg">
<g clip-path="url(#clip0_242_118)">
<path d="M18.2538 2.79318C17.3574 2.79318 -0.0756836 2.79318 -0.0756836 2.79318C-0.0756836 2.79318 1.22234 3.40777 1.22234 7.07207V42.7817C1.22234 46.446 -0.0756836 46.875 -0.0756836 46.875H6.26017C6.26017 46.875 4.99416 46.475 4.99416 42.8136V29.7914H16.0273C28.4837 29.7914 33.3032 24.8341 33.3032 15.8763C33.3032 7.8403 26.3504 2.79318 18.2538 2.79318ZM14.1414 28.6811H4.99416V7.07207C4.99416 5.71535 5.14841 4.76159 5.36378 4.14701H16.0273C22.3632 4.14701 29.3801 7.40836 29.3801 15.969C29.3801 26.6199 22.7328 28.6811 14.1414 28.6811Z" fill="#202020"/>
<path d="M40.6825 23.173C42.4753 14.3659 54.4659 12.7048 56.9077 21.4771L60.2459 20.677C57.8652 11.4118 41.1772 11.3191 40.6825 23.173ZM35.4584 46.9069H41.7942C41.7942 46.9069 40.5282 46.5068 40.5282 42.8425L40.4962 13.9368L35.4584 15.8762C35.4584 15.8762 36.7564 16.4908 36.7564 20.1551V42.8135C36.7564 46.475 35.4584 46.9069 35.4584 46.9069Z" fill="#202020"/>
<path d="M66.2993 29.6986V29.2985H93.712C93.712 18.2157 87.3441 13.9658 78.5985 13.9658C69.8209 13.9658 62.4023 20.7697 62.4023 29.8522C62.4023 38.9347 69.1718 46.9388 79.7743 46.9388C86.6951 46.9388 92.1957 42.3207 92.7225 37.4243C90.5892 47.3997 66.5147 49.4928 66.2993 29.6986ZM78.5985 15.3834C86.666 15.3834 90.1876 20.9871 90.1876 28.3448H66.3284C66.8552 20.8016 72.3238 15.3834 78.5985 15.3834Z" fill="#202020"/>
<path d="M98.1539 13.9658L96.8879 19.7551C96.8879 19.816 96.8879 19.8478 96.8879 19.8478V19.7551C97.0421 19.2304 98.5555 15.1689 113.052 15.1689H116.143C115.989 15.8154 99.6702 42.8135 99.6702 42.8135C97.4117 46.475 95.8663 46.9069 95.8663 46.9069H120.313L121.582 41.0887C121.582 41.0568 121.582 41.0278 121.582 41.0278V41.0887C121.428 41.6424 119.912 45.7067 105.418 45.7067H102.048C102.202 45.0892 121.117 13.9368 121.117 13.9368L98.1539 13.9658Z" fill="#202020"/>
<path d="M127.634 29.6986V29.2985H155.047C155.047 18.2157 148.679 13.9658 139.933 13.9658C131.156 13.9658 123.737 20.7697 123.737 29.8522C123.737 38.9347 130.507 46.9388 141.109 46.9388C148.03 46.9388 153.531 42.3207 154.057 37.4243C151.924 47.3997 127.85 49.4928 127.634 29.6986ZM139.933 15.3834C148.001 15.3834 151.523 20.9871 151.523 28.3448H127.663C128.19 20.8016 133.659 15.3834 139.933 15.3834Z" fill="#202020"/>
<path d="M157.201 15.9052C157.201 15.9052 158.499 16.5227 158.499 20.216V42.8136C158.499 46.475 157.201 46.9069 157.201 46.9069C160.539 46.9069 162.271 46.2604 162.271 43.2745V13.9658L157.201 15.9052ZM178.991 46.9069H185.327C185.327 46.9069 184.029 46.5069 184.029 42.8426V22.5265C184.029 12.4903 164.497 9.41154 162.486 23.173C165.548 12.4265 180.257 12.5192 180.257 23.2339C180.257 42.8136 180.257 42.8136 180.257 42.8136C180.257 46.475 178.991 46.9069 178.991 46.9069Z" fill="#202020"/>
<path d="M195.704 13.9658V5.31528L190.666 7.25469C190.666 7.25469 191.964 7.87218 191.964 11.5336C191.964 11.5336 191.964 12.3047 191.964 13.9658H187.482V15.0124H191.964C191.964 19.355 191.964 27.9737 191.964 42.0743C191.964 46.2604 195.026 46.9069 196.013 46.9069C198.024 46.9069 199.723 45.5821 199.723 43.5818C199.196 44.9066 195.675 45.5212 195.736 42.1033L195.704 15.0124H201.114V13.9658H195.704Z" fill="#202020"/>
<path d="M204.57 6.05452V42.8136C204.57 46.475 203.272 46.9069 203.272 46.9069H209.608C209.608 46.9069 208.342 46.5069 208.342 42.8425L208.31 -0.19278L203.272 1.74664C203.272 1.74664 204.57 2.39311 204.57 6.05452Z" fill="#202020"/>
<path d="M216.839 37.578C216.839 18.0012 216.839 13.905 216.839 13.905L211.769 15.8763C211.769 15.8763 213.067 16.2763 213.067 19.9406V38.2883C213.067 48.3216 232.602 51.4004 234.642 37.6418C231.551 48.3854 216.839 48.2926 216.839 37.578ZM238.597 13.9369L233.559 15.8763C233.559 15.8763 234.825 16.4909 234.857 20.0943V43.7065C234.857 48.3216 234.95 57.465 225.556 57.465C216.158 57.465 214.275 49.6465 214.275 49.6465C214.275 53.7717 218.23 59.2218 225.492 59.2218C238.317 59.2218 238.629 50.2611 238.629 43.7355L238.597 13.9369Z" fill="#202020"/>
</g>
<defs>
<clipPath id="clip0_242_118">
<rect width="238.603" height="59" fill="white"/>
</clipPath>
</defs>
</svg>
