<svg width="600" height="600" viewBox="0 0 600 600" fill="none" xmlns="http://www.w3.org/2000/svg">
<g clip-path="url(#clip0_37_253)">
<path d="M350.356 351.363C347.506 353.9 343.425 356.356 342.544 356.05C341.912 355.831 342.987 354.988 346.494 352.925C349.144 351.375 351.419 350.094 351.556 350.081C351.694 350.075 351.156 350.65 350.356 351.363ZM313.462 414.812C312.981 417.038 312.069 419.812 311.438 420.988C309.862 423.894 305.637 427.988 299.556 432.494C287.281 441.581 281.644 445.875 278.769 448.337C276.181 450.55 275.85 450.725 276.706 449.419C278.25 447.087 282.256 442.469 286.525 438.094C288.612 435.944 292.462 431.656 295.069 428.562C297.675 425.462 302.056 420.769 304.794 418.138C310.037 413.094 312.237 409.981 313.212 406.231L313.8 403.969L314.069 407.369C314.244 409.594 314.031 412.169 313.462 414.812ZM278.944 421.681C275.85 424.45 271.444 428.544 269.162 430.794C265.369 434.531 260.275 438.513 255.281 441.656L253.325 442.881L254.762 441.206C255.556 440.288 258.6 437.594 261.537 435.225C264.469 432.856 269.262 428.712 272.181 426.013C275.106 423.312 279.031 420.006 280.9 418.663C284.394 416.144 284.55 416.05 284.562 416.431C284.569 416.55 282.037 418.919 278.944 421.681ZM337.737 336.731C339.844 334.163 342.269 326.863 342.144 323.456C342.081 321.5 341.837 320.938 340.781 320.219L339.5 319.35L341.475 314C342.556 311.056 344.6 306.5 346.012 303.875C350.162 296.169 351.906 291.05 353.444 282.056C355.05 272.613 355.656 270.481 357.644 267.375C358.444 266.119 359.837 263.325 360.737 261.169C364.712 251.606 366.269 248.588 371.894 239.475C375.181 234.156 379.012 227.312 380.412 224.275C383.237 218.125 385.044 214.838 385.6 214.85C385.8 214.85 387.212 215.106 388.731 215.413C391.862 216.044 394.419 217.156 398.881 219.819C400.575 220.838 402.194 221.738 402.475 221.819C402.756 221.9 402.331 223.544 401.525 225.494C400.725 227.438 399.162 231.413 398.05 234.331C396.206 239.169 395.675 240.012 392 244.006C386.319 250.181 379.431 259.2 378.119 262.188C377.506 263.575 375.769 268.275 374.256 272.638C371.275 281.231 369.5 284.494 362.837 293.619C358.438 299.644 358.394 299.763 357.356 308.219C356.456 315.506 354.806 320.506 351.55 325.788C348.325 331.013 345.569 333.731 340.95 336.25C337.425 338.169 336.438 338.312 337.737 336.731ZM331.45 338.244C330.969 337.794 333.394 330.663 334.887 328.15C336.087 326.125 338.312 323.625 338.931 323.606C339.006 323.6 338.806 324.775 338.475 326.212C337.606 330.05 335.369 334.7 333.425 336.719C332.487 337.694 331.6 338.381 331.45 338.244ZM391.044 208.163C392.744 206.419 395.012 206.05 397.319 207.144C398.069 207.506 399.269 208.375 399.975 209.088L401.269 210.375L399.762 210.012C398.931 209.812 396.287 209.725 393.894 209.806C391.5 209.887 389.531 209.906 389.531 209.838C389.531 209.769 390.206 209.019 391.044 208.163ZM405.112 215.938L404.225 217.194C403.412 218.338 403.244 218.387 402.175 217.775C401.531 217.406 399.175 216.062 396.938 214.788L392.862 212.475L395.369 212.731C396.744 212.869 399.5 213.644 401.487 214.463L405.112 215.938ZM324.25 344.619C320.419 346.281 318.531 346.881 318.519 346.456C318.506 346.1 318.975 343.481 319.562 340.638C320.144 337.788 320.606 334.844 320.575 334.087C320.519 332.45 320.95 332.369 322.737 333.669C323.594 334.306 324.406 335.663 324.994 337.456C326.094 340.844 326.512 341.375 328.45 341.806C329.844 342.113 329.519 342.331 324.25 344.619ZM315.856 341.869C314.406 348.606 313.831 350.144 312.194 351.7L311.106 352.738L311.362 350.981C311.694 348.775 316.775 334.606 317.012 335.238C317.106 335.5 316.587 338.481 315.856 341.869ZM191.069 410.006C189.281 407.944 186.35 402 185.237 398.194C184.131 394.388 183.069 388.925 183.519 389.344C183.662 389.475 185.119 392.337 186.75 395.706C189.487 401.369 190.85 405.113 191.756 409.488L192.119 411.219L191.069 410.006ZM433.087 236.331C433.969 234.4 434.925 231.619 435.2 230.144C435.625 227.863 436.006 227.238 437.688 225.994C441.7 223.038 443.525 222.269 445.394 222.775C446.8 223.15 448.144 222.931 453.025 221.512C458.431 219.944 461.675 219.319 461.694 219.844C461.694 219.956 460.25 220.788 458.487 221.688C452.162 224.919 451.225 226.4 453.862 228.969C455.15 230.219 455.175 230.325 454.3 230.65C453.781 230.838 452.362 231.425 451.15 231.956C449.931 232.488 447.387 233.469 445.487 234.137C443.594 234.806 440.312 236.206 438.2 237.244C434.725 238.95 431.487 240.25 431.481 239.95C431.475 239.881 432.2 238.25 433.087 236.331ZM463.944 196.881C465.95 194.35 468.812 190.213 470.3 187.694C479.012 172.969 481.856 169.369 478.519 177.281C476.125 182.975 465.688 197.381 461.856 200.3C460.794 201.113 461.456 200.025 463.944 196.881ZM383.994 307.119C383.044 309.931 381.275 313.4 380.95 313.094C380.456 312.631 381.706 307.019 383.012 303.875L384.475 300.331L384.694 302.356C384.819 303.538 384.525 305.531 383.994 307.119ZM359.056 348.369C362.044 344.119 362.112 342.306 359.331 340.606C356.775 339.038 352.025 337.631 348.481 337.381L345.594 337.181L346.95 336.281C350.569 333.881 356.406 325.231 358.55 319.094C359.3 316.938 360.262 312.25 360.806 308.094L361.756 300.856L365.706 295.45C373.387 284.925 374.212 283.356 378.506 270.994C380.075 266.475 381.75 262.231 382.219 261.575C383.494 259.781 390.537 250.594 391.812 249.05L392.925 247.713L392.725 249.244C392.612 250.088 392.35 253.238 392.137 256.244C391.562 264.538 388.725 279.806 386.525 286.488C385.462 289.719 383.212 295.319 381.525 298.944C378.287 305.888 377.556 308.462 377.681 312.544C377.825 317.231 380.906 318.794 383.494 315.494C385.275 313.219 387.4 308.438 388.006 305.325C388.506 302.794 388.537 302.756 388.756 304.388C389.131 307.131 388.65 308.944 386.4 313.238C384.181 317.456 383.962 319.263 385.55 320.181C386.831 320.919 391.406 318.231 394.462 314.944C398.3 310.812 403.781 302.275 408.112 293.694C414.2 281.625 414.719 279.775 415.925 265.931C416.325 261.306 416.925 256.8 417.262 255.919C417.862 254.35 419.744 252.325 425.531 247.05C427.631 245.131 429.244 244.156 431.6 243.375C433.362 242.794 436.569 241.494 438.731 240.488C444.887 237.606 453.8 234.269 455.7 234.125C457.244 234.006 457.475 234.156 457.806 235.475C458.85 239.562 458.387 246.456 456.537 254.706C456.069 256.775 455.569 259.925 455.431 261.706C455.287 263.488 454.894 265.406 454.556 265.975C453.769 267.288 453.637 289.456 454.394 292.506C455.294 296.125 458.95 298.175 465.9 298.938C469.919 299.388 473.881 296.306 476.756 290.506C477.412 289.181 479.787 281.913 482.025 274.363C486.075 260.706 486.525 258.562 488.9 241.113C490.612 228.581 492.856 222.106 500.006 209.113C501.994 205.494 504.744 199.456 506.112 195.694C507.481 191.925 509.012 187.713 509.512 186.325C511.137 181.85 515.019 166.381 516.194 159.706C517.175 154.163 517.269 152.544 516.856 148.644C515.769 138.363 511.862 124.156 507.844 115.9C505.194 110.45 505.112 110.175 505.2 106.506C505.269 103.463 505.575 102.125 506.794 99.65C509.156 94.8063 515.325 86.35 519.994 81.5438C526.575 74.7688 528.087 73.5313 556.044 51.9625C577.512 35.4063 591.531 23.4438 594.706 18.9688C598.175 14.0688 598.75 11.5188 596.344 11.6125C595.594 11.6438 594.794 12.5 593.631 14.5063C592.731 16.0688 590.687 18.65 589.094 20.2313C583.644 25.6625 567.644 38.8875 554.687 48.6938C541.169 58.9188 525.95 71.1 521.356 75.375C512.212 83.9 503.869 95.625 502.188 102.325C501.006 107.031 501.669 111.344 504.394 116.688C507.762 123.313 510.444 131.831 512.613 142.825C514.437 152.094 513.962 156.75 509.387 174.369C505.944 187.65 501.175 200.113 495.906 209.606C489.731 220.731 487.131 228.475 485.625 240.231C484.156 251.669 482.562 260.794 481.419 264.3C480.744 266.381 479.537 270.456 478.744 273.363C474.925 287.363 472.944 292.006 469.775 294.369C468.819 295.081 467.375 295.688 466.569 295.712C463.794 295.794 459.606 294.538 458.419 293.263C457.275 292.038 457.256 291.881 457.125 280.706C457.05 274.481 457.194 268.812 457.444 268.1C458.031 266.431 459.769 265.331 466.675 262.3C471.625 260.125 472.331 259.663 472.425 258.562C472.581 256.7 471.244 255.95 467.975 256.062C465.812 256.138 464.419 256.556 462.112 257.8C460.45 258.694 459.087 259.188 459.075 258.894C459.069 258.6 459.369 257.225 459.737 255.838C462.881 244.038 462.119 232.006 457.981 228.156L456.512 226.781L459.419 225.188C461.012 224.312 464.369 222.775 466.875 221.781C469.375 220.788 472.337 219.35 473.456 218.588C479.188 214.675 481.781 210.331 478.956 209.363C478.012 209.038 476.756 209.756 473.662 212.4C469.675 215.8 467.862 216.456 462.244 216.556C458.287 216.619 456.4 216.931 452.456 218.144C449.769 218.975 447.475 219.569 447.362 219.456C447.062 219.181 455.994 209.994 459.737 206.725C465.25 201.919 469.825 196.85 474.412 190.475C482.531 179.194 485.925 169.825 482.625 167.825C480.062 166.275 477.525 169.119 469.275 182.75C466.562 187.225 462.556 193.2 460.369 196.019C454.325 203.8 445.825 212.562 440.625 216.375C438.087 218.238 435.419 220.456 434.694 221.3C433.375 222.85 432.331 225.794 431.869 229.306C431.731 230.35 430.669 233.231 429.512 235.7C427.369 240.288 425.35 242.688 418.162 249.238C414.106 252.931 413.619 254.344 412.631 265.275C411.369 279.294 411.125 280.119 404.075 294.106C401.019 300.163 394.056 310.694 391.237 313.519C389.394 315.369 389.35 315.081 390.925 311.688C391.694 310.025 392.194 307.906 392.287 305.95C392.412 303.144 392.237 302.481 390.5 299.144C389.45 297.106 388.25 295.325 387.85 295.188C387.237 294.975 387.281 294.506 388.156 292.319C389.931 287.844 391.931 280.394 393.044 274.119C394.7 264.763 394.887 263.419 395.25 258.344C395.431 255.738 395.781 252.363 396.019 250.844C396.462 247.988 402.45 231.8 405.556 225.038C409.237 217.012 414.169 203.975 414.825 200.506C415.95 194.569 415.475 191.356 413.481 191.425C412.287 191.469 411.35 193.919 409.462 201.875C408.425 206.244 407.319 210.45 407 211.219L406.419 212.613L404.737 209.8C401.881 205.031 397.081 202.506 392.5 203.356C390.7 203.694 389.9 204.312 386.856 207.725C382.4 212.725 381.062 214.831 377.744 222.081C376.275 225.281 373.131 231 370.75 234.788C364.344 244.95 361.769 249.719 359.05 256.419C357.706 259.731 355.737 263.888 354.681 265.65C352.294 269.644 351.681 271.719 350.188 280.85C348.919 288.656 347.156 294.375 344.537 299.238C342.475 303.062 338.769 311.369 337.175 315.738C336.512 317.562 334.6 321.331 332.925 324.106C331.25 326.881 329.556 330.288 329.162 331.669C328.206 335 327.869 335.3 327.062 333.538C326.688 332.725 325.112 331.144 323.556 330.019C322 328.9 320.4 327.738 320.012 327.438C319.412 326.988 319.556 326.1 320.9 321.931C321.775 319.194 323.594 312.656 324.938 307.4C329.019 291.388 330.431 287.881 337.675 275.663C349.237 256.125 354.994 246.925 361.306 237.856C384.012 205.225 395.756 185.744 407.206 161.731C411.938 151.813 414.281 145.881 418.6 132.944C424.062 116.563 429.056 105.756 437.55 91.8813C444.412 80.6813 451.444 71.075 476.244 39.05C482.381 31.125 490.806 19.8688 494.975 14.0438C499.144 8.21251 502.756 3.30626 503 3.14376C503.256 2.97501 503.438 2.29376 503.419 1.62501C503.356 0.018757 501.456 0.037507 500.05 1.65001C499.494 2.28751 497.794 4.56876 496.275 6.72501C490.919 14.3125 484.912 22.3375 476.856 32.6688C464.506 48.5 446.75 71.9438 441.688 79.1063C436.969 85.7688 428.262 100.756 424.594 108.525C420.612 116.956 417.8 124.131 414.756 133.656C411.75 143.088 408.087 152.1 402.987 162.644C391.987 185.369 379.869 205.288 357.512 237.35C349.031 249.519 331.806 278.056 328.237 285.856C325.637 291.544 324.25 295.85 321.831 305.763C319.531 315.169 315.081 329.694 311.625 339.1C308.481 347.656 307.694 350.638 307.8 353.631C307.881 355.9 307.787 356.056 304.625 358.95C302.837 360.587 299.412 363.35 297.019 365.081C294.619 366.812 289.894 371.1 286.512 374.6C281.125 380.175 278.081 382.688 271.319 387.119C270.212 387.844 269.837 388.5 269.769 389.831L269.688 391.587L265.844 391.706C262.7 391.806 261.5 392.087 259.181 393.275C255.081 395.375 249.494 399.669 244.775 404.35C237.187 411.881 230.587 416.388 224.294 418.325C221.575 419.163 212.25 419.044 209.275 418.131C206.112 417.163 203.25 415.081 200.731 411.913C198.612 409.25 190.769 395.656 188.112 390.044C187.506 388.756 186.65 387.375 186.225 386.975C185.25 386.069 183.987 386.556 183.594 388.006C183.106 389.775 181.706 384.844 181.431 380.444C181.181 376.325 181.894 373.988 184.887 369.119C186.525 366.456 187.725 363.006 188.969 357.369C189.35 355.631 191 350.538 192.631 346.044C197.206 333.469 197.906 328.181 196.725 315.344C195.894 306.362 194.725 300.225 193.344 297.55C191.119 293.263 186.45 290.744 181.837 291.35C179.606 291.644 179.019 291.962 177.725 293.569C175.719 296.056 175.319 298.169 175.025 307.663C174.656 319.575 174.575 319.919 170.019 328.819C167.8 333.144 164.056 340.944 161.687 346.15C159.319 351.363 156.35 357.119 155.081 358.944C153.819 360.769 149.819 365.413 146.194 369.263C138.875 377.05 139.244 376.325 137.044 387.481C135.456 395.569 127.194 413.225 120.406 423.044C116.719 428.375 111.75 432.712 96.7687 443.706C81.7812 454.694 73.5687 460.825 63.2625 468.731C52.7812 476.775 35.9062 489.181 19.2375 501.113C6.77498 510.031 0.793732 515.506 0.874981 517.913C0.924981 519.275 1.87498 519.944 2.84373 519.3C3.14998 519.094 3.91873 518.175 4.54998 517.256C6.22498 514.812 11.4812 510.469 18.6437 505.606C22.125 503.238 26.8375 499.925 29.1125 498.244C31.3812 496.562 37.5062 492.1 42.725 488.331C47.9437 484.556 57.7812 477.212 64.5937 472C76.5687 462.844 86.275 455.6 101.044 444.806C109.831 438.381 117.112 432.356 120 429.106C124.919 423.581 130.394 413.981 135.731 401.556C138.931 394.087 139.806 391.456 140.706 386.544C141.306 383.269 142.106 379.9 142.494 379.069C142.875 378.231 146.256 374.188 149.994 370.081C153.737 365.981 157.625 361.394 158.631 359.888C159.644 358.388 162.606 352.45 165.225 346.706C167.844 340.95 171.437 333.475 173.212 330.094C177.862 321.225 177.925 320.981 178.156 311.15C178.469 297.594 179.287 294.8 182.962 294.688C185.556 294.606 188.631 296.363 190.056 298.744C191.612 301.35 192.925 308.438 193.656 318.225C194.4 328.188 193.625 333.119 189.544 344.531C187.956 348.975 186.025 355.094 185.262 358.131C183.762 364.094 183.344 365.175 181.119 368.725C177.575 374.394 177.256 379.163 179.712 389.919C182.606 402.613 185.469 409.256 190.106 414.062C193.444 417.525 195.8 417.125 195.706 413.113L195.662 411.094L196.519 412.306C198.237 414.75 204.45 420.081 206.55 420.919C207.975 421.488 211.062 421.894 215.694 422.119L222.687 422.462L227.569 420.656C233.712 418.375 239.019 414.688 246.169 407.731C252.112 401.944 257.944 397.5 261.644 395.931C263.662 395.075 264.85 394.913 268.156 395.044C271.762 395.188 272.294 395.094 273.05 394.2C273.681 393.45 273.8 392.756 273.506 391.462C273.137 389.812 273.212 389.681 275.219 388.575C278.931 386.525 282.994 383.081 289.537 376.456C293.056 372.888 297.756 368.669 299.987 367.069C302.219 365.469 306 362.363 308.387 360.163C319.606 349.837 319.188 350.1 333.169 344.756C345.287 340.125 348.919 339.775 355.656 342.587C358.025 343.575 358.1 343.7 357.144 345.05C356.594 345.831 356.331 345.881 355.481 345.394C354.237 344.675 351.362 345.881 344.944 349.825C342.6 351.269 340.494 352.45 340.269 352.462C339.419 352.488 337.756 354.625 337.787 355.644C337.812 356.225 338.212 357.1 338.688 357.587C339.156 358.075 339.456 358.55 339.344 358.638C339.237 358.731 337.606 359.712 335.725 360.812C330.237 364.038 326.294 366.956 321.387 371.425C316.456 375.913 306.562 387.719 303.2 393.125C298.731 400.312 293.644 405.381 283.925 412.337C279.244 415.688 272.906 420.719 269.844 423.525C266.781 426.331 261.688 430.725 258.512 433.3C251.075 439.325 246.206 445.769 247.575 447.781C248.581 449.256 249.675 448.962 255.05 445.75C261.812 441.712 265.831 438.669 271.069 433.606C273.4 431.356 277.344 427.719 279.844 425.519C282.337 423.325 285.925 419.881 287.812 417.875C293.675 411.638 302.775 400.331 305.481 395.925C307.975 391.869 317.331 380.025 320.575 376.819L322.144 375.269L321.331 377.044C320.887 378.019 319.162 381.4 317.5 384.55C314 391.2 312.806 394.263 311.175 400.837C310.525 403.456 309.581 406.506 309.081 407.625C308.562 408.769 304.794 413.225 300.394 417.894C283.869 435.406 275.669 444.756 271.594 450.706C267.581 456.562 259.831 468.825 258.712 471.081C258.406 471.694 257.044 474.462 255.687 477.238C252.987 482.738 251.119 485.094 248.112 486.763C245.137 488.413 242.606 488.812 226.512 490.219C210.156 491.65 209.475 491.731 198.75 493.506C188.206 495.25 180.831 497.062 161.944 502.531C152.831 505.169 142.362 507.875 138.687 508.544C135.006 509.219 129.1 510.413 125.562 511.212C122.025 512.006 116.037 513.237 112.262 513.944C97.0437 516.794 88.8125 520.894 78.8687 530.581C76.4812 532.906 71.7062 537.275 68.2687 540.294C64.8187 543.306 59.6937 548 56.8625 550.719C54.0375 553.444 49.35 557.656 46.4437 560.088C43.5375 562.519 37.1312 568.006 32.2 572.294C21.975 581.181 15.1687 586.644 6.57498 592.862C3.27498 595.25 0.462481 597.556 0.318732 597.969C0.0812313 598.644 1.41248 600.031 2.26248 600C3.63748 599.956 23.3625 584.55 34.2937 574.987C38.4187 571.381 44.7375 565.944 48.3312 562.906C51.925 559.869 56.7125 555.594 58.9687 553.406C61.225 551.225 66.0062 546.856 69.6 543.7C73.1937 540.544 77.975 536.175 80.2312 534C85.1125 529.288 88.7062 526.375 92.3562 524.175C96.2375 521.838 104.575 518.881 110.581 517.725C113.444 517.169 120.012 515.806 125.187 514.688C130.356 513.569 137.1 512.219 140.169 511.688C143.237 511.156 153.237 508.562 162.394 505.919C171.544 503.281 181.656 500.469 184.862 499.675C194.456 497.294 208.637 495.181 224.069 493.819C232.062 493.113 240.506 492.244 242.825 491.888C250.919 490.638 254.562 487.444 259.744 477.069C261.756 473.044 263.794 469.831 265.887 467.4C267.612 465.406 271.05 461.388 273.531 458.481C278.406 452.781 281.275 450.356 297.306 438.388C315.994 424.444 317.381 422.031 317.519 403.337C317.587 393.894 318.119 389.581 319.419 387.881C319.656 387.569 321.262 384.456 322.981 380.975C327.925 370.95 329.581 368.725 334.438 365.625C340.35 361.856 344.219 359.8 345.494 359.756C348.619 359.644 354.719 354.525 359.056 348.369Z" fill="#707070"/>
</g>
<defs>
<clipPath id="clip0_37_253">
<rect width="600" height="600" fill="white"/>
</clipPath>
</defs>
</svg>
