<svg width="48" height="48" viewBox="0 0 48 48" fill="none" xmlns="http://www.w3.org/2000/svg">
<path fill-rule="evenodd" clip-rule="evenodd" d="M32.8889 4H15.1111C8.97461 4 4 8.97461 4 15.1111V32.8889C4 39.0254 8.97461 44 15.1111 44H32.8889C39.0254 44 44 39.0254 44 32.8889V15.1111C44 8.97461 39.0254 4 32.8889 4ZM40.1106 32.889C40.0984 36.8727 36.872 40.0991 32.8883 40.1113H15.1106C11.1269 40.0991 7.90055 36.8727 7.88835 32.889V15.1113C7.90055 11.1276 11.1269 7.90124 15.1106 7.88904H32.8883C36.872 7.90124 40.0984 11.1276 40.1106 15.1113V32.889ZM34.5556 15.6666C35.7829 15.6666 36.7778 14.6717 36.7778 13.4444C36.7778 12.2171 35.7829 11.2222 34.5556 11.2222C33.3283 11.2222 32.3333 12.2171 32.3333 13.4444C32.3333 14.6717 33.3283 15.6666 34.5556 15.6666ZM23.9992 13.9999C18.4763 13.9999 13.9992 18.4771 13.9992 23.9999C13.9992 29.5227 18.4763 33.9999 23.9992 33.9999C29.522 33.9999 33.9992 29.5227 33.9992 23.9999C34.0051 21.3459 32.9534 18.7989 31.0768 16.9223C29.2001 15.0457 26.6532 13.994 23.9992 13.9999ZM17.8883 24C17.8883 27.3751 20.6244 30.1111 23.9995 30.1111C27.3745 30.1111 30.1106 27.3751 30.1106 24C30.1106 20.625 27.3745 17.8889 23.9995 17.8889C20.6244 17.8889 17.8883 20.625 17.8883 24Z" fill="#707070"/>
</svg>
