<svg width="48" height="48" viewBox="0 0 48 48" fill="none" xmlns="http://www.w3.org/2000/svg">
<g clip-path="url(#clip0_208_101)">
<path d="M34 14H26V18H34C37.3 18 40 20.7 40 24C40 27.3 37.3 30 34 30H26V34H34C39.52 34 44 29.52 44 24C44 18.48 39.52 14 34 14ZM22 30H14C10.7 30 8 27.3 8 24C8 20.7 10.7 18 14 18H22V14H14C8.48 14 4 18.48 4 24C4 29.52 8.48 34 14 34H22V30ZM16 22H32V26H16V22Z" fill="#707070"/>
</g>
<defs>
<clipPath id="clip0_208_101">
<rect width="48" height="48" fill="white"/>
</clipPath>
</defs>
</svg>
