<svg width="616" height="320" viewBox="0 0 616 320" fill="none" xmlns="http://www.w3.org/2000/svg">
<path d="M614 1.5C609.479 5.37548 592.5 35.7801 567 47.4999C541.5 59.2197 504.5 67.9999 494 47.4999C483.5 26.9999 503.445 15 511.5 33C519.555 51 508.286 63.1382 503.445 67.9795C490.699 80.7248 477.596 88.983 459.689 93.723C443.806 97.9273 420.294 100.418 409.397 97.1502C398.5 93.8824 389 93.723 358 67.9795C327 42.236 309.778 67.085 304.032 71.1675C296.966 76.1879 286 150 247.5 134C209 118 183 182.12 195.5 190.56C208 199 217 186.387 208 177.387C199 168.387 183.5 152.5 156.5 148.5C129.5 144.5 120.446 168.794 117.5 177.387C114.458 186.26 104.989 206.024 99.1995 213.674C90.9053 224.634 81.6778 233.187 69.3912 239.497C65.4544 241.518 61.8886 244.196 57.8345 245.953C51.9542 248.501 43.8956 249.533 38.7062 253.126C27.675 260.763 36.3798 276.734 30 287.5C28.192 293.125 7.85486 318.401 1.96387 318.401" stroke="#707070" stroke-width="3" stroke-linecap="round"/>
</svg>
