<svg width="609" height="359" viewBox="0 0 609 359" fill="none" xmlns="http://www.w3.org/2000/svg">
<path d="M606.789 2.39282C592.347 2.39282 578.437 14.9839 565.982 21.0429C554.813 26.4765 541.056 23.7778 530.037 19.6083C522.891 16.9046 492.5 7.39169 462 13.5C431.5 19.6083 414.788 40.4995 414.788 51.2498C414.788 62 421 73.5 431.5 68C442 62.5 432.096 39.9265 425.15 36.1862C410.703 28.4071 384.736 27.7379 369 46.5C353.264 65.2621 356 122.848 356 130.5C354.63 149.335 374.5 250.5 343 258.5C311.5 266.5 295.879 168.339 258.5 179.649C221.121 190.958 241.5 247 214.5 278C187.5 309 130.527 316.724 119.592 303.5M119.592 303.5C115.577 298.644 98 276.379 113.5 271.5C129 266.621 129.684 291.5 119.592 303.5ZM119.592 303.5C109.5 315.5 89.5 334.5 74.5 343.5C59.5 352.5 40.5 357 1.5 357" stroke="#707070" stroke-width="3" stroke-linecap="round"/>
</svg>
