<svg width="48" height="48" viewBox="0 0 48 48" fill="none" xmlns="http://www.w3.org/2000/svg">
<path d="M43.9415 12.9789C42.9094 14.2357 41.6619 15.332 40.2471 16.2255C40.2471 16.5539 40.2471 16.8822 40.2471 17.2287C40.2584 23.1908 37.6497 28.9077 33.0058 33.0977C28.3619 37.2878 22.0713 39.6005 15.5442 39.5174C11.7708 39.5289 8.04562 38.7423 4.6606 37.2192C4.47808 37.1465 4.36036 36.9816 4.36105 36.7997V36.5991C4.36105 36.3372 4.59352 36.1249 4.88027 36.1249C8.5895 36.0133 12.1664 34.8392 15.1049 32.7688C11.7475 32.7071 8.72676 30.8914 7.33658 28.0995C7.26636 27.947 7.28822 27.7721 7.39427 27.638C7.50032 27.5039 7.67522 27.4299 7.8558 27.4428C8.87617 27.5365 9.90674 27.4498 10.8912 27.1875C7.18498 26.4851 4.40015 23.6762 4.00159 20.2382C3.98743 20.0733 4.06839 19.9136 4.21523 19.8167C4.36206 19.7198 4.55355 19.6999 4.72051 19.764C5.71511 20.1647 6.78877 20.3757 7.87577 20.3842C4.62821 18.4383 3.22548 14.7371 4.4609 11.3738C4.58843 11.047 4.8948 10.8056 5.26745 10.7383C5.64009 10.671 6.02402 10.7877 6.27817 11.0455C10.6605 15.3035 16.682 17.8408 23.0729 18.1225C22.9092 17.5261 22.8287 16.9133 22.8333 16.2985C22.893 13.0749 25.0779 10.2033 28.3649 9.02796C31.6519 7.85266 35.3906 8.60632 37.8307 10.9361C39.494 10.6468 41.1019 10.1368 42.6035 9.42221C42.7135 9.35952 42.853 9.35952 42.963 9.42221C43.0316 9.52267 43.0316 9.65006 42.963 9.75052C42.2357 11.271 41.007 12.5462 39.4483 13.3984C40.8132 13.2539 42.1542 12.96 43.4423 12.5229C43.5507 12.4555 43.6933 12.4555 43.8017 12.5229C43.8926 12.5609 43.9605 12.6334 43.9874 12.7213C44.0144 12.8092 43.9976 12.9034 43.9415 12.9789Z" fill="#707070"/>
</svg>
